<svg width="121" height="17" viewBox="0 0 121 17" fill="none" xmlns="http://www.w3.org/2000/svg">
<path d="M7.98486 14.2852C9.99137 14.2852 11.3802 13.2819 12.1514 11.2754L15.0376 12.3647C14.4162 13.8921 13.5028 15.0301 12.2974 15.7788C11.0994 16.52 9.66195 16.8906 7.98486 16.8906C6.29281 16.8906 4.85156 16.5687 3.66113 15.9248C2.4707 15.2734 1.56104 14.3338 0.932129 13.106C0.31071 11.8781 0 10.4032 0 8.68115C0 6.94417 0.299479 5.47673 0.898438 4.27881C1.4974 3.08089 2.38086 2.17122 3.54883 1.5498C4.7168 0.920898 6.14681 0.606445 7.83887 0.606445C9.69564 0.606445 11.208 0.980794 12.376 1.72949C13.5439 2.4707 14.3638 3.5638 14.8354 5.00879L11.9155 5.80615C11.6685 5.01253 11.1818 4.38363 10.4556 3.91943C9.73682 3.44775 8.88704 3.21191 7.90625 3.21191C6.40885 3.21191 5.27083 3.67611 4.49219 4.60449C3.72103 5.53288 3.33545 6.89176 3.33545 8.68115C3.33545 9.89404 3.51139 10.916 3.86328 11.7471C4.22266 12.5781 4.74674 13.2108 5.43555 13.645C6.13184 14.0718 6.98161 14.2852 7.98486 14.2852ZM19.7913 16.8906C18.6159 16.8906 17.6987 16.5724 17.0398 15.936C16.381 15.2922 16.0516 14.39 16.0516 13.2295C16.0516 11.9717 16.4596 11.0171 17.2757 10.3657C18.0993 9.71436 19.2897 9.3737 20.847 9.34375L23.4637 9.29883V8.68115C23.4637 7.88753 23.3252 7.2998 23.0481 6.91797C22.7711 6.52865 22.3182 6.33398 21.6893 6.33398C21.1053 6.33398 20.6748 6.46875 20.3978 6.73828C20.1282 7.00033 19.9598 7.43831 19.8924 8.05225L16.6019 7.89502C17.0136 5.4917 18.7544 4.29004 21.824 4.29004C23.3589 4.29004 24.5418 4.66813 25.3729 5.42432C26.2039 6.1805 26.6194 7.25488 26.6194 8.64746V13.0723C26.6194 13.7536 26.6943 14.2253 26.844 14.4873C27.0013 14.7419 27.2596 14.8691 27.6189 14.8691C27.8585 14.8691 28.0906 14.8467 28.3152 14.8018V16.5088C27.9259 16.6061 27.5927 16.6772 27.3157 16.7222C27.0387 16.7746 26.698 16.8008 26.2938 16.8008C25.5001 16.8008 24.9124 16.6061 24.5306 16.2168C24.1562 15.8275 23.9316 15.2547 23.8567 14.4985H23.7894C23.3476 15.2922 22.7936 15.8911 22.1272 16.2954C21.4609 16.6922 20.6823 16.8906 19.7913 16.8906ZM23.4637 11.0396L21.8465 11.062C21.1053 11.0994 20.5849 11.1781 20.2854 11.2979C19.9785 11.4326 19.7426 11.6348 19.5779 11.9043C19.4207 12.1738 19.3421 12.5332 19.3421 12.9824C19.3421 13.5589 19.4731 13.9894 19.7352 14.2739C20.0047 14.5509 20.3603 14.6895 20.8021 14.6895C21.2962 14.6895 21.7492 14.5547 22.1609 14.2852C22.5652 14.0156 22.8834 13.645 23.1155 13.1733C23.3476 12.6942 23.4637 12.1888 23.4637 11.6572V11.0396ZM32.6422 10.7026V16.666H29.4864V7.36719C29.4864 6.70085 29.4752 6.14681 29.4527 5.70508C29.4378 5.25586 29.419 4.85905 29.3966 4.51465H32.4063C32.4213 4.58203 32.4363 4.73177 32.4513 4.96387C32.4662 5.19596 32.4812 5.45801 32.4962 5.75C32.5112 6.03451 32.5224 6.30404 32.5299 6.55859C32.5449 6.81315 32.5523 6.99658 32.5523 7.10889H32.5973C32.8967 6.27035 33.17 5.66764 33.4171 5.30078C33.6567 4.94889 33.9412 4.69059 34.2706 4.52588C34.6 4.36117 35.0118 4.27881 35.506 4.27881C35.9103 4.27881 36.2359 4.33496 36.483 4.44727V7.08643C35.9814 6.97412 35.5322 6.91797 35.1354 6.91797C34.3492 6.91797 33.7353 7.23617 33.2936 7.87256C32.8593 8.50895 32.6422 9.45231 32.6422 10.7026ZM40.7538 11.1968C40.7538 12.3797 40.9709 13.2744 41.4052 13.8809C41.8469 14.4798 42.4721 14.7793 43.2807 14.7793C43.8347 14.7793 44.2877 14.6595 44.6395 14.4199C44.9989 14.1729 45.2497 13.8097 45.392 13.3306L48.3681 13.5889C47.5071 15.79 45.7589 16.8906 43.1234 16.8906C41.2966 16.8906 39.8928 16.3516 38.912 15.2734C37.9312 14.1878 37.4408 12.6081 37.4408 10.5342C37.4408 8.52767 37.9387 6.98535 38.9345 5.90723C39.9302 4.8291 41.3415 4.29004 43.1684 4.29004C44.9128 4.29004 46.2455 4.87028 47.1664 6.03076C48.0873 7.18376 48.5478 8.87581 48.5478 11.1069V11.1968H40.7538ZM45.4931 9.22021C45.4332 8.23942 45.1973 7.5057 44.7855 7.01904C44.3738 6.5249 43.8197 6.27783 43.1234 6.27783C42.3822 6.27783 41.8095 6.53613 41.4052 7.05273C41.0084 7.56934 40.7987 8.29183 40.7763 9.22021H45.4931ZM70.3301 0.842285L64.5127 16.666H61.1548L55.3037 0.842285H58.7627L62.0195 11.0059C62.1243 11.3353 62.2441 11.7508 62.3789 12.2524C62.5212 12.7466 62.6784 13.3268 62.8506 13.9932C63.0977 13.0573 63.2736 12.3797 63.3784 11.9604C63.4907 11.5412 63.5843 11.223 63.6592 11.0059L66.9048 0.842285H70.3301ZM74.5447 0V2.32471H71.389V0H74.5447ZM74.5447 4.51465V16.666H71.389V4.51465H74.5447ZM87.7325 13.1172C87.7325 14.2926 87.2496 15.2173 86.2838 15.8911C85.3255 16.5575 83.9965 16.8906 82.297 16.8906C80.6274 16.8906 79.3471 16.6286 78.4562 16.1045C77.5727 15.5729 76.985 14.7493 76.693 13.6338L79.4669 13.2183C79.6241 13.7948 79.8937 14.2028 80.2755 14.4424C80.6648 14.682 81.3386 14.8018 82.297 14.8018C83.1804 14.8018 83.8243 14.6895 84.2286 14.4648C84.6329 14.2402 84.8351 13.8883 84.8351 13.4092C84.8351 13.0199 84.6703 12.7129 84.3409 12.4883C84.019 12.2562 83.4687 12.0615 82.69 11.9043C82.0986 11.7845 81.567 11.6685 81.0953 11.5562C80.6311 11.4438 80.2306 11.3353 79.8937 11.2305C79.5642 11.1182 79.2947 11.0133 79.0851 10.916C78.4636 10.609 77.9882 10.216 77.6588 9.73682C77.3369 9.25765 77.1759 8.66618 77.1759 7.9624C77.1759 6.80192 77.6214 5.89974 78.5123 5.25586C79.4107 4.60449 80.6798 4.27881 82.3194 4.27881C83.7644 4.27881 84.9249 4.55957 85.8009 5.12109C86.6843 5.68262 87.2346 6.49495 87.4518 7.55811L84.6554 7.8501C84.5655 7.35596 84.3447 6.9891 83.9928 6.74951C83.6409 6.50244 83.0831 6.37891 82.3194 6.37891C81.5707 6.37891 81.0092 6.47624 80.6349 6.6709C80.2605 6.85807 80.0733 7.17627 80.0733 7.62549C80.0733 7.97738 80.2156 8.25814 80.5001 8.46777C80.7921 8.66992 81.2787 8.83838 81.9601 8.97314C82.9109 9.16781 83.7532 9.36995 84.4869 9.57959C85.2281 9.78174 85.8233 10.0251 86.2726 10.3096C86.7143 10.5941 87.0662 10.9609 87.3282 11.4102C87.5978 11.8519 87.7325 12.4209 87.7325 13.1172ZM93.1488 0V2.32471H89.9931V0H93.1488ZM93.1488 4.51465V16.666H89.9931V4.51465H93.1488ZM107.639 10.5791C107.639 12.5482 107.093 14.0942 106 15.2173C104.907 16.3328 103.394 16.8906 101.463 16.8906C99.5684 16.8906 98.0822 16.3291 97.0041 15.2061C95.926 14.083 95.3869 12.5407 95.3869 10.5791C95.3869 8.625 95.926 7.09017 97.0041 5.97461C98.0822 4.85156 99.5909 4.29004 101.53 4.29004C103.514 4.29004 105.026 4.83285 106.067 5.91846C107.115 6.99658 107.639 8.55013 107.639 10.5791ZM104.338 10.5791C104.338 9.13411 104.102 8.08594 103.63 7.43457C103.158 6.7832 102.473 6.45752 101.575 6.45752C100.617 6.45752 99.8978 6.80192 99.4187 7.49072C98.9395 8.17204 98.6999 9.2015 98.6999 10.5791C98.6999 11.9342 98.932 12.9674 99.3962 13.6787C99.8679 14.3825 100.545 14.7344 101.429 14.7344C102.402 14.7344 103.128 14.39 103.608 13.7012C104.094 13.0049 104.338 11.9642 104.338 10.5791ZM113.011 10.1523V16.666H109.855V7.23242C109.855 6.58105 109.844 6.04948 109.821 5.6377C109.806 5.21842 109.788 4.84408 109.765 4.51465H112.775C112.79 4.60449 112.809 4.81787 112.831 5.15479C112.854 5.48421 112.872 5.82487 112.887 6.17676C112.91 6.52116 112.921 6.77197 112.921 6.9292H112.966C113.393 6.00081 113.928 5.32699 114.572 4.90771C115.216 4.48844 115.983 4.27881 116.874 4.27881C118.162 4.27881 119.15 4.67562 119.839 5.46924C120.528 6.26286 120.872 7.42334 120.872 8.95068V16.666H117.728V9.84912C117.728 8.77848 117.548 7.97738 117.188 7.4458C116.829 6.91423 116.286 6.64844 115.56 6.64844C114.796 6.64844 114.179 6.97786 113.707 7.63672C113.243 8.28809 113.011 9.12663 113.011 10.1523Z" fill="url(#paint0_linear_32_1048)"/>
<defs>
<linearGradient id="paint0_linear_32_1048" x1="-0.943359" y1="8.66602" x2="123.057" y2="8.66602" gradientUnits="userSpaceOnUse">
<stop stop-color="#53C47D"/>
<stop offset="1" stop-color="#E4D567"/>
</linearGradient>
</defs>
</svg>
